<svg width="339" height="202" viewBox="0 0 339 202" fill="none" xmlns="http://www.w3.org/2000/svg">
<path d="M105.219 144.124C96.3592 144.124 89.1717 151.312 89.1717 160.171C89.1717 169.072 96.4009 176.218 105.219 176.218C109.713 176.218 113.818 174.979 116.729 172.666V169.072C112.75 174.505 105.474 177.718 99.4009 173.781C95.4634 171.213 92.7654 166.078 92.7238 160.171C92.7238 158.588 93.6196 157.775 95.2029 157.734C98.2446 157.734 101.625 161.114 105.219 161.713C108.682 162.223 111.51 160.385 110.526 156.536C110.14 158.333 108.302 158.588 106.76 158.416C103.765 158.031 100.937 155.807 97.729 155.807C95.9738 155.765 94.0936 156.275 92.854 157.906C93.7498 150.499 98.9269 144.812 105.219 144.812C110.568 144.812 114.849 149.088 113.005 154.265C115.401 154.307 116.729 152.854 116.729 150.927C116.729 148.447 114.078 146.479 112.021 145.494C109.927 144.552 107.531 144.124 105.219 144.124Z" fill="black"/>
<path d="M140.644 176.218C143.764 176.218 147.702 175.661 150.525 173.781C155.363 170.567 155.233 164.109 150.999 160.687C147.743 158.031 142.311 157.859 138.332 156.874C135.035 156.02 131.53 154.479 131.868 150.885C132.17 147.677 135.295 145.791 138.202 145.15C142.139 144.255 146.978 145.109 149.16 147.973C150.441 149.645 150.91 151.869 150.056 154.265C152.452 154.307 153.738 152.854 153.738 150.927C153.738 148.447 151.124 146.479 149.071 145.494C146.931 144.552 144.577 144.124 142.228 144.124C138.077 144.124 132.295 145.067 130.202 149.177C128.962 151.572 129.259 154.609 131.014 156.791C134.436 160.9 141.582 160.598 146.29 162.27C151.082 163.937 153.608 168.9 149.801 172.624C146.249 176.088 137.816 176.859 134.139 172.921C132.556 171.213 131.868 168.77 132.811 166.078C130.415 166.078 129.129 167.531 129.129 169.416C129.129 171.895 131.743 173.906 133.795 174.848C135.894 175.833 138.29 176.218 140.644 176.218Z" fill="black"/>
<path d="M161.391 157.906V144.124H157.839V176.218H161.391V159.489C161.391 158.203 162.844 157.734 163.917 157.734C167.469 157.734 170.204 161.583 174.485 161.458C176.537 161.411 178.506 160.473 179.235 158.333V176.218H182.787V144.124H179.235V156.275C179.235 157.989 177.782 158.671 176.199 158.546C172.943 158.244 169.99 155.979 166.782 155.807C164.771 155.677 162.719 156.322 161.391 157.906Z" fill="black"/>
<path d="M202.207 144.124C193.649 144.124 186.675 151.312 186.675 160.171C186.675 169.031 193.649 176.218 202.207 176.218C210.811 176.218 217.743 169.031 217.743 160.171C217.743 151.312 210.811 144.124 202.207 144.124ZM202.207 144.812C208.842 144.812 214.191 151.697 214.191 160.171C214.191 168.687 208.842 175.578 202.207 175.578C195.618 175.578 190.227 168.687 190.227 160.171C190.227 151.697 195.618 144.812 202.207 144.812Z" fill="black"/>
<path d="M221.587 144.124V176.218H225.139V160.687H236.863C241.483 160.687 245.847 157.604 245.847 152.427C245.847 147.249 241.654 144.124 237.076 144.124H221.587ZM225.139 144.812H234.639C238.535 144.812 242.253 147.932 242.253 152.427C242.253 156.921 239.816 160.041 234.68 160.041H225.139V144.812Z" fill="black"/>
<path d="M333.807 153.099C328.156 144.656 316.083 138.911 309.26 132.953C301.286 131.156 294.401 127.161 287.495 124C280.203 120.656 273 117.932 265.734 115.047C243.672 106.276 222.641 96.3542 207.708 80.9115C202.542 75.5677 198.042 68.9948 194.875 63.0052C192.953 59.3698 191.474 52.8802 188.74 51.25C184.083 48.4792 175.505 50.974 170.885 49.0104C175.208 33.5365 158.286 27.9688 159.167 15.4375C160.016 3.32813 174.036 3.59896 179.813 10.401C181.688 12.6146 182.818 18.5938 188.177 16.5573C190.031 13.3854 186.198 9.89063 184.276 7.60417C181.875 4.75 178.969 1.88542 175.349 0.890627C166.052 -1.66666 155.135 3.44792 154.146 14.3177C152.687 30.3177 168.464 31.1615 166.417 49.0104C159.401 50.8438 150.839 48.6198 146.891 51.25C144.464 52.8698 140.875 62.974 138.521 66.9219C135.391 72.1771 131.187 77.9583 127.922 81.4688C110.635 100.052 83.8802 107.396 58.7344 118.401C49.724 122.344 40.5781 127.047 31.3906 131.833C19 138.292 5.30207 144.568 1.26041 157.016C0.177074 160.354 -1.52605 168.651 2.93749 172.682C9.35937 174.437 15.3958 165.313 22.4635 163.729C25.9583 162.948 32.3646 163.729 38.0885 163.729H57.6146C119.208 163.729 204.604 164.286 279.125 164.286C291.88 164.286 306.359 162.771 315.953 164.849C322.953 166.365 327.63 175.219 336.042 174.359C341.141 167.385 337.354 158.396 333.807 153.099ZM183.714 12.0781C180.557 8.15625 177.917 3.71875 171.438 3.125C177.516 1.88542 181.682 7.40104 183.714 12.0781ZM166.417 2.56771C167.578 2.25521 170.682 2.30209 170.88 2.56771C171.432 3.29688 168.042 2.90104 167.536 3.125C165.51 4.03646 159.833 6.58854 158.047 9.28125C159.922 5.51563 164.198 3.16146 166.417 2.56771ZM156.932 10.401C159.177 10.6198 156.516 14.5469 156.375 15.9948C159.453 28 170.38 34.5469 169.208 49.0104C166.458 46.5521 168.104 44.7292 167.536 41.7396C165.401 30.5052 152.448 25.099 156.932 10.401ZM188.177 52.9323C194.943 66.1198 200.62 77.4844 211.057 87.0677C227.531 102.193 255.964 111.703 279.13 121.76C289.807 126.401 297.422 130.526 308.141 134.63C317.63 141.901 329.547 146.734 333.25 159.813C309.005 124.063 243.797 119.917 211.057 91.5417C200.359 82.2708 193.938 71.0885 187.063 56.849C177.776 53.6458 162.964 51.4896 153.031 55.1667C146.911 57.4323 146.901 63.3854 142.984 67.4792C140.724 66.6354 144.63 62.9688 145.219 61.3229C143.484 46.0156 174.938 50.3229 188.177 52.9323ZM15.7708 141.906C54.1667 115.396 117.698 109.302 140.755 66.3594C142.536 68.7135 139.245 71.2083 137.964 73.6354C140.484 73.1823 140.812 70.526 141.87 68.599C131.578 93.4115 106.745 103.229 79.9375 114.484C67.625 119.656 55 125.203 41.9948 131.271C27.0417 138.25 10.125 145.318 4.05207 160.37C3.76562 152.276 10.25 145.719 15.7708 141.906ZM12.4219 166.526C12.1094 167.521 10.8698 166.609 11.8646 166.526C43.5677 148.896 74.4948 130.479 106.719 113.365C75.8073 131.609 44.276 149.229 12.4219 166.526ZM167.536 81.4688C172.75 82.7448 174.755 83.4375 181.88 88.1563C187.344 91.7656 191.755 94.4427 196.547 97.1354C231.26 116.63 268.26 136.422 302.005 157.573C272.552 156.578 235.438 157.5 204.432 157.646L186.422 157.5C143.922 156.38 92.4062 156.786 35.2969 156.453C78.6094 130.693 124 107.01 167.531 81.4688H167.536ZM107.276 113.365C111.896 110.167 116.792 107.24 122.339 104.974C120.453 106.484 112.047 111.026 107.276 113.365ZM123.458 104.411C127.766 101.089 132.802 98.4896 137.964 96.0156C133.635 99.3281 128.521 101.844 123.458 104.411ZM30.276 161.49C32.8854 161.786 41.2604 159.333 44.2239 162.047C40.6614 161.401 32.3385 162.922 30.276 161.49ZM44.7812 160.932C52.1927 161.302 55.4844 161.182 61.5208 161.49C57.3958 162.078 47.9948 163.13 44.7812 160.932ZM62.6406 161.49H65.9844C107.807 161.12 152.51 162.25 195.432 160.932C152.453 160.646 92.8177 161.146 30.276 159.813C34.4114 156.906 46.2031 157.333 55.3854 157.573C82.0052 158.271 120.151 158.448 156.917 158.068L157.25 158.224L224.542 158.781L224.448 158.609C243.495 158.906 262.167 158.865 278.568 158.693C288.109 158.594 298.307 157.448 307.026 160.37C265.359 161.536 232.745 160.203 195.99 160.932C236.453 162.396 279.328 160.802 309.813 162.047C217.943 162.917 142.078 163.073 62.6354 161.49H62.6406ZM334.365 171.563C288.76 145.859 243.63 119.677 198.224 93.7813H194.318C186.578 88.1094 177.307 83.9792 168.651 79.2292C159.297 83.8385 150.714 89.2188 141.87 94.3385C128.208 97.5833 115.172 107.141 103.37 113.927C70.1042 133.047 36.1094 150.953 2.93749 169.328C8.18749 144.828 35.3542 134.323 57.0573 125.12C74.7344 117.625 92.7604 111.094 107.833 103.292C109.094 104.594 104.51 104.781 104.484 106.651C118.479 98.8646 133.427 86.8854 142.984 70.276C145.531 65.849 149.25 56.6823 153.589 56.2865C159.927 55.7083 162.865 63.2813 169.208 64.1198C168.552 61.7969 165.635 61.7344 164.187 60.2031C167.453 59.9219 171.104 64.0781 174.786 65.2396C171.833 61.3073 166.594 59.6563 161.953 57.4063C161.573 58.9115 163.109 58.4896 163.63 59.0833C161.76 60.0052 159.453 56.5781 156.932 56.2865C166.229 53.4844 179 54.1198 186.505 57.9688C191.099 67.5885 195.396 76.276 201.573 83.7083C227.052 114.37 279.234 118 310.932 142.464H313.719C320.302 148.734 328.516 153.37 332.135 162.609C329.729 162.224 328.708 160.448 326.552 159.813C329.083 163.672 336.354 164.943 334.365 171.563Z" fill="#0F606B"/>
<path d="M333.807 153.099C328.156 144.656 316.083 138.911 309.26 132.953C301.286 131.156 294.401 127.161 287.495 124C280.203 120.656 273 117.932 265.734 115.047C243.672 106.276 222.641 96.3542 207.708 80.9115C202.542 75.5677 198.042 68.9948 194.875 63.0052C192.953 59.3698 191.474 52.8802 188.74 51.25C184.083 48.4792 175.505 50.974 170.885 49.0104C175.208 33.5365 158.286 27.9688 159.167 15.4375C160.016 3.32813 174.036 3.59896 179.813 10.401C181.688 12.6146 182.818 18.5938 188.177 16.5573C190.031 13.3854 186.198 9.89063 184.276 7.60417C181.875 4.75 178.969 1.88542 175.349 0.890627C166.052 -1.66666 155.135 3.44792 154.146 14.3177C152.687 30.3177 168.464 31.1615 166.417 49.0104C159.401 50.8438 150.839 48.6198 146.891 51.25C144.464 52.8698 140.875 62.974 138.521 66.9219C135.391 72.1771 131.187 77.9583 127.922 81.4688C110.635 100.052 83.8802 107.396 58.7344 118.401C49.724 122.344 40.5781 127.047 31.3906 131.833C19 138.292 5.30207 144.568 1.26041 157.016C0.177074 160.354 -1.52605 168.651 2.93749 172.682C9.35937 174.437 15.3958 165.313 22.4635 163.729C25.9583 162.948 32.3646 163.729 38.0885 163.729H57.6146C119.208 163.729 204.604 164.286 279.125 164.286C291.88 164.286 306.359 162.771 315.953 164.849C322.953 166.365 327.63 175.219 336.042 174.359C341.141 167.385 337.354 158.396 333.807 153.099ZM183.714 12.0781C180.557 8.15625 177.917 3.71875 171.438 3.125C177.516 1.88542 181.682 7.40104 183.714 12.0781ZM166.417 2.56771C167.578 2.25521 170.682 2.30209 170.88 2.56771C171.432 3.29688 168.042 2.90104 167.536 3.125C165.51 4.03646 159.833 6.58854 158.047 9.28125C159.922 5.51563 164.198 3.16146 166.417 2.56771ZM156.932 10.401C159.177 10.6198 156.516 14.5469 156.375 15.9948C159.453 28 170.38 34.5469 169.208 49.0104C166.458 46.5521 168.104 44.7292 167.536 41.7396C165.401 30.5052 152.448 25.099 156.932 10.401ZM188.177 52.9323C194.943 66.1198 200.62 77.4844 211.057 87.0677C227.531 102.193 255.964 111.703 279.13 121.76C289.807 126.401 297.422 130.526 308.141 134.63C317.63 141.901 329.547 146.734 333.25 159.813C309.005 124.063 243.797 119.917 211.057 91.5417C200.359 82.2708 193.938 71.0885 187.063 56.849C177.776 53.6458 162.964 51.4896 153.031 55.1667C146.911 57.4323 146.901 63.3854 142.984 67.4792C140.724 66.6354 144.63 62.9688 145.219 61.3229C143.484 46.0156 174.938 50.3229 188.177 52.9323ZM15.7708 141.906C54.1667 115.396 117.698 109.302 140.755 66.3594C142.536 68.7135 139.245 71.2083 137.964 73.6354C140.484 73.1823 140.812 70.526 141.87 68.599C131.578 93.4115 106.745 103.229 79.9375 114.484C67.625 119.656 55 125.203 41.9948 131.271C27.0417 138.25 10.125 145.318 4.05207 160.37C3.76562 152.276 10.25 145.719 15.7708 141.906ZM12.4219 166.526C12.1094 167.521 10.8698 166.609 11.8646 166.526C43.5677 148.896 74.4948 130.479 106.719 113.365C75.8073 131.609 44.276 149.229 12.4219 166.526ZM167.536 81.4688C172.75 82.7448 174.755 83.4375 181.88 88.1563C187.344 91.7656 191.755 94.4427 196.547 97.1354C231.26 116.63 268.26 136.422 302.005 157.573C272.552 156.578 235.438 157.5 204.432 157.646L186.422 157.5C143.922 156.38 92.4062 156.786 35.2969 156.453C78.6094 130.693 124 107.01 167.531 81.4688H167.536ZM107.276 113.365C111.896 110.167 116.792 107.24 122.339 104.974C120.453 106.484 112.047 111.031 107.276 113.365ZM123.458 104.411C127.766 101.089 132.802 98.4896 137.964 96.0156C133.635 99.3281 128.521 101.844 123.458 104.411ZM30.276 161.49C32.8854 161.786 41.2604 159.333 44.2239 162.047C40.6614 161.401 32.3385 162.922 30.276 161.49ZM44.7812 160.932C52.1927 161.302 55.4844 161.182 61.5208 161.49C57.3958 162.078 47.9948 163.13 44.7812 160.932ZM62.6406 161.49H65.9844C107.807 161.12 152.51 162.25 195.432 160.932C152.453 160.646 92.8177 161.146 30.276 159.813C34.4114 156.906 46.2031 157.333 55.3854 157.573C82.0052 158.271 120.151 158.448 156.917 158.068L157.25 158.224L224.542 158.781L224.448 158.609C243.495 158.906 262.167 158.865 278.568 158.693C288.109 158.594 298.307 157.448 307.026 160.37C265.359 161.536 232.745 160.203 195.99 160.932C236.453 162.396 279.328 160.802 309.813 162.052C217.943 162.917 142.078 163.073 62.6354 161.49H62.6406ZM334.365 171.563C288.76 145.859 243.63 119.677 198.224 93.7813H194.318C186.578 88.1094 177.307 83.9792 168.651 79.2292C159.297 83.8385 150.714 89.2188 141.87 94.3385C128.208 97.5833 115.172 107.141 103.37 113.927C70.1042 133.047 36.1094 150.953 2.93749 169.328C8.18749 144.828 35.3542 134.323 57.0573 125.12C74.7344 117.625 92.7604 111.094 107.833 103.292C109.094 104.594 104.51 104.781 104.484 106.651C118.479 98.8646 133.427 86.8854 142.984 70.276C145.531 65.849 149.25 56.6823 153.589 56.2865C159.927 55.7083 162.865 63.2813 169.208 64.1198C168.552 61.7969 165.635 61.7344 164.187 60.2031C167.453 59.9219 171.104 64.0781 174.786 65.2396C171.833 61.3073 166.594 59.6563 161.953 57.4063C161.573 58.9115 163.109 58.4896 163.63 59.0833C161.76 60.0052 159.453 56.5781 156.932 56.2865C166.229 53.4844 179 54.1198 186.505 57.9688C191.099 67.5885 195.396 76.276 201.573 83.7083C227.052 114.37 279.234 118 310.932 142.464H313.719C320.302 148.734 328.516 153.37 332.135 162.609C329.729 162.224 328.708 160.448 326.552 159.813C329.083 163.672 336.354 164.943 334.365 171.563Z" fill="#0F606B"/>
<path d="M333.807 153.099C328.156 144.656 316.083 138.911 309.26 132.953C301.286 131.156 294.401 127.161 287.495 124C280.203 120.656 273 117.932 265.734 115.047C243.672 106.276 222.641 96.3542 207.708 80.9115C202.542 75.5677 198.042 68.9948 194.875 63.0052C192.953 59.3698 191.474 52.8802 188.74 51.25C184.083 48.4792 175.505 50.974 170.885 49.0104C175.208 33.5365 158.286 27.9688 159.167 15.4375C160.016 3.32813 174.036 3.59896 179.813 10.401C181.688 12.6146 182.818 18.5938 188.177 16.5573C190.031 13.3854 186.198 9.89063 184.276 7.60417C181.875 4.75 178.969 1.88542 175.349 0.890627C166.052 -1.66666 155.135 3.44792 154.146 14.3177C152.687 30.3177 168.464 31.1615 166.417 49.0104C159.401 50.8438 150.839 48.6198 146.891 51.25C144.464 52.8698 140.875 62.974 138.521 66.9219C135.391 72.1771 131.187 77.9583 127.922 81.4688C110.635 100.052 83.8802 107.396 58.7344 118.401C49.724 122.344 40.5781 127.047 31.3906 131.833C19 138.292 5.30207 144.568 1.26041 157.016C0.177074 160.354 -1.52605 168.651 2.93749 172.682C9.35937 174.437 15.3958 165.313 22.4635 163.729C25.9583 162.948 32.3646 163.729 38.0885 163.729H57.6146C119.208 163.729 204.604 164.286 279.125 164.286C291.88 164.286 306.359 162.771 315.953 164.849C322.953 166.365 327.63 175.219 336.042 174.359C341.141 167.385 337.354 158.396 333.807 153.099ZM183.714 12.0781C180.557 8.15625 177.917 3.71875 171.438 3.125C177.516 1.88542 181.682 7.40104 183.714 12.0781ZM166.417 2.56771C167.578 2.25521 170.682 2.30209 170.88 2.56771C171.432 3.29688 168.042 2.90104 167.536 3.125C165.51 4.03646 159.833 6.58854 158.047 9.28125C159.922 5.51563 164.198 3.16146 166.417 2.56771ZM156.932 10.401C159.177 10.6198 156.516 14.5469 156.375 15.9948C159.453 28 170.38 34.5469 169.208 49.0104C166.458 46.5521 168.104 44.7292 167.536 41.7396C165.401 30.5052 152.448 25.099 156.932 10.401ZM188.177 52.9323C194.943 66.1198 200.62 77.4844 211.057 87.0677C227.531 102.193 255.964 111.703 279.13 121.76C289.807 126.401 297.422 130.526 308.141 134.63C317.63 141.901 329.547 146.734 333.25 159.813C309.005 124.063 243.797 119.917 211.057 91.5417C200.359 82.2708 193.938 71.0885 187.063 56.849C177.776 53.6458 162.964 51.4896 153.031 55.1667C146.911 57.4323 146.901 63.3854 142.984 67.4792C140.724 66.6354 144.63 62.9688 145.219 61.3229C143.484 46.0156 174.938 50.3229 188.177 52.9323ZM15.7708 141.906C54.1667 115.396 117.698 109.302 140.755 66.3594C142.536 68.7135 139.245 71.2083 137.964 73.6354C140.484 73.1823 140.812 70.526 141.87 68.599C131.578 93.4115 106.745 103.229 79.9375 114.484C67.625 119.656 55 125.203 41.9948 131.271C27.0417 138.25 10.125 145.318 4.05207 160.37C3.76562 152.276 10.25 145.719 15.7708 141.906ZM12.4219 166.526C12.1094 167.521 10.8698 166.609 11.8646 166.526C43.5677 148.896 74.4948 130.479 106.719 113.365C75.8073 131.609 44.276 149.229 12.4219 166.526ZM167.536 81.4688C172.75 82.7448 174.755 83.4375 181.88 88.1563C187.344 91.7656 191.755 94.4427 196.547 97.1354C231.26 116.63 268.26 136.422 302.005 157.573C272.552 156.578 235.438 157.5 204.432 157.646L186.422 157.5C143.922 156.38 92.4062 156.786 35.2969 156.453C78.6094 130.693 124 107.01 167.531 81.4688H167.536ZM107.276 113.365C111.896 110.167 116.792 107.24 122.339 104.974C120.453 106.484 112.047 111.026 107.276 113.365ZM123.458 104.411C127.766 101.089 132.802 98.4896 137.964 96.0156C133.635 99.3281 128.521 101.844 123.458 104.411ZM30.276 161.49C32.8854 161.786 41.2604 159.333 44.2239 162.047C40.6614 161.401 32.3385 162.922 30.276 161.49ZM44.7812 160.932C52.1927 161.302 55.4844 161.182 61.5208 161.49C57.3958 162.078 47.9948 163.13 44.7812 160.932ZM62.6406 161.49H65.9844C107.807 161.12 152.51 162.25 195.432 160.932C152.453 160.646 92.8177 161.146 30.276 159.813C34.4114 156.906 46.2031 157.333 55.3854 157.573C82.0052 158.271 120.151 158.448 156.917 158.068L157.25 158.224L224.542 158.781L224.448 158.609C243.495 158.906 262.167 158.865 278.568 158.693C288.109 158.594 298.307 157.448 307.026 160.37C265.359 161.536 232.745 160.203 195.99 160.932C236.453 162.396 279.328 160.802 309.813 162.047C217.943 162.917 142.078 163.073 62.6354 161.49H62.6406ZM334.365 171.563C288.76 145.859 243.63 119.677 198.224 93.7813H194.318C186.578 88.1094 177.307 83.9792 168.651 79.2292C159.297 83.8385 150.714 89.2188 141.87 94.3385C128.208 97.5833 115.172 107.141 103.37 113.927C70.1042 133.047 36.1094 150.953 2.93749 169.328C8.18749 144.828 35.3542 134.323 57.0573 125.12C74.7344 117.625 92.7604 111.094 107.833 103.292C109.094 104.594 104.51 104.781 104.484 106.651C118.479 98.8646 133.427 86.8854 142.984 70.276C145.531 65.849 149.25 56.6823 153.589 56.2865C159.927 55.7083 162.865 63.2813 169.208 64.1198C168.552 61.7969 165.635 61.7344 164.187 60.2031C167.453 59.9219 171.104 64.0781 174.786 65.2396C171.833 61.3073 166.594 59.6563 161.953 57.4063C161.573 58.9115 163.109 58.4896 163.63 59.0833C161.76 60.0052 159.453 56.5781 156.932 56.2865C166.229 53.4844 179 54.1198 186.505 57.9688C191.099 67.5885 195.396 76.276 201.573 83.7083C227.052 114.37 279.234 118 310.932 142.464H313.719C320.302 148.734 328.516 153.37 332.135 162.609C329.729 162.224 328.708 160.448 326.552 159.813C329.083 163.672 336.354 164.943 334.365 171.563Z" fill="#0F606B"/>
<path d="M272.057 163.495V157.495" stroke="black" stroke-width="0.982682"/>
<path d="M64.9219 163.49V156.49" stroke="black" stroke-width="1.00367"/>
<path d="M107.185 190.449C106.935 190.366 106.737 190.324 106.601 190.324C106.393 190.324 106.226 190.34 106.101 190.366C105.976 190.382 105.903 190.382 105.893 190.366C105.877 190.34 105.872 190.304 105.872 190.262C105.872 190.22 105.882 190.179 105.914 190.137C105.94 190.095 105.976 190.074 106.018 190.074C106.601 189.939 107.398 189.866 108.414 189.866L111.351 194.679H111.414L114.226 189.866C115.226 189.866 116.018 189.939 116.601 190.074C116.695 190.09 116.747 190.158 116.747 190.283C116.747 190.356 116.685 190.382 116.56 190.366C116.435 190.34 116.268 190.324 116.06 190.324C115.851 190.324 115.627 190.376 115.393 190.47L116.518 198.47C116.57 198.887 116.695 199.147 116.893 199.241C116.945 199.257 116.976 199.304 116.976 199.387C116.976 199.46 116.945 199.491 116.893 199.491H114.955C114.898 199.491 114.872 199.46 114.872 199.387C114.872 199.319 114.877 199.277 114.893 199.262C114.919 199.251 114.945 199.236 114.976 199.22C115.07 199.179 115.153 199.069 115.226 198.887C115.31 198.694 115.351 198.564 115.351 198.491C115.351 198.423 115.351 198.382 115.351 198.366L114.414 191.408H114.372L111.476 196.47C111.461 196.486 111.393 196.491 111.268 196.491C111.143 196.481 111.07 196.47 111.06 196.47L108.039 191.408H107.997L107.122 198.366C107.106 198.491 107.132 198.637 107.205 198.804C107.273 198.97 107.33 199.085 107.372 199.137C107.424 199.179 107.476 199.215 107.518 199.241C107.57 199.257 107.601 199.304 107.601 199.387C107.601 199.46 107.57 199.491 107.518 199.491H105.747C105.69 199.491 105.664 199.46 105.664 199.387C105.664 199.319 105.669 199.277 105.685 199.262C105.711 199.251 105.737 199.236 105.768 199.22C105.945 199.137 106.065 198.887 106.122 198.47L107.185 190.449Z" fill="black"/>
<path d="M120.075 194.824C119.825 194.981 119.637 195.189 119.512 195.449C119.398 195.715 119.346 196.048 119.346 196.449C119.346 196.84 119.455 197.236 119.679 197.637C119.898 198.043 120.2 198.361 120.575 198.595C120.96 198.819 121.346 198.929 121.721 198.929C122.106 198.929 122.419 198.845 122.658 198.679C122.908 198.501 123.096 198.277 123.221 198.012C123.346 197.736 123.408 197.429 123.408 197.095C123.408 196.402 123.184 195.814 122.742 195.324C122.309 194.824 121.721 194.574 120.971 194.574C120.637 194.574 120.335 194.658 120.075 194.824ZM119.367 198.783C119.101 198.533 118.887 198.236 118.721 197.887C118.565 197.527 118.492 197.111 118.492 196.637C118.492 196.152 118.617 195.689 118.867 195.241C119.117 194.783 119.471 194.429 119.929 194.179C120.387 193.918 120.867 193.783 121.367 193.783C122.268 193.783 122.981 194.069 123.512 194.637C124.054 195.21 124.325 195.902 124.325 196.72C124.335 197.527 124.059 198.21 123.492 198.762C122.919 199.319 122.205 199.595 121.346 199.595C120.971 199.595 120.606 199.522 120.262 199.387C119.929 199.236 119.627 199.033 119.367 198.783Z" fill="black"/>
<path d="M129.313 190.866V190.762C129.313 190.751 129.323 190.736 129.354 190.72C129.38 190.71 129.396 190.699 129.396 190.699L130.438 189.908C130.464 189.897 130.505 189.887 130.563 189.887C130.63 189.887 130.677 189.902 130.709 189.929C130.75 189.944 130.771 189.991 130.771 190.074C130.771 193.59 130.776 196.314 130.792 198.241C130.802 198.314 130.797 198.34 130.771 198.324C130.771 198.324 130.776 198.34 130.792 198.366C130.818 198.382 130.865 198.397 130.938 198.408C131.005 198.408 131.052 198.418 131.084 198.429C131.11 198.444 131.125 198.491 131.125 198.574C131.125 198.647 131.11 198.689 131.084 198.699L130.125 199.491C130.11 199.501 130.063 199.512 129.979 199.512C129.896 199.512 129.839 199.501 129.813 199.491C129.797 199.465 129.792 199.439 129.792 199.408C129.792 199.382 129.792 199.356 129.792 199.324C129.802 199.283 129.802 199.236 129.792 199.179C129.776 199.126 129.761 199.095 129.75 199.095C129.735 199.095 129.698 199.111 129.646 199.137L129.5 199.241C129.094 199.481 128.688 199.595 128.271 199.595C127.865 199.595 127.49 199.522 127.146 199.387C126.813 199.236 126.511 199.033 126.25 198.783C125.985 198.533 125.771 198.236 125.604 197.887C125.448 197.527 125.375 197.111 125.375 196.637C125.375 196.152 125.5 195.689 125.75 195.241C126 194.783 126.354 194.429 126.813 194.179C127.271 193.918 127.802 193.783 128.417 193.783C128.651 193.783 128.901 193.845 129.167 193.97C129.427 194.085 129.63 194.199 129.771 194.324H129.834C129.834 193.064 129.823 192.069 129.813 191.345C129.813 191.22 129.776 191.132 129.709 191.074C129.651 191.022 129.584 190.991 129.5 190.991C129.427 190.991 129.386 190.981 129.375 190.949C129.334 190.939 129.313 190.908 129.313 190.866ZM129.792 198.158L129.813 195.616C129.63 195.283 129.365 195.027 129.021 194.845C128.672 194.668 128.281 194.574 127.854 194.574C127.297 194.574 126.844 194.866 126.5 195.449C126.318 195.757 126.229 196.048 126.229 196.324C126.229 197.048 126.448 197.637 126.896 198.095C127.354 198.543 127.938 198.762 128.646 198.762C128.839 198.762 129.042 198.71 129.25 198.595C129.469 198.47 129.651 198.324 129.792 198.158Z" fill="black"/>
<path d="M136.403 195.429C136.163 194.762 135.663 194.429 134.903 194.429C134.554 194.429 134.236 194.527 133.944 194.72C133.653 194.902 133.429 195.137 133.278 195.429C133.121 195.71 133.048 195.981 133.048 196.241C133.048 196.491 133.054 196.611 133.069 196.595L136.382 195.449V195.408L136.403 195.429ZM133.194 197.22C133.361 197.679 133.642 198.043 134.048 198.304C134.449 198.569 134.903 198.699 135.403 198.699C136.054 198.699 136.642 198.397 137.173 197.783C137.257 197.715 137.371 197.757 137.528 197.908C137.538 197.923 137.538 197.944 137.528 197.97C137.08 198.585 136.736 198.981 136.486 199.158C136.069 199.449 135.59 199.595 135.048 199.595C134.673 199.595 134.309 199.517 133.965 199.366C133.257 199.064 132.746 198.564 132.444 197.866C132.278 197.522 132.194 197.111 132.194 196.637C132.194 196.152 132.319 195.689 132.569 195.241C132.819 194.783 133.173 194.429 133.632 194.179C134.09 193.918 134.621 193.783 135.236 193.783C135.955 193.783 136.611 194.126 137.194 194.804C137.47 195.152 137.611 195.423 137.611 195.616L133.194 197.22Z" fill="black"/>
<path d="M138.92 194.887L138.941 194.783C138.941 194.757 138.946 194.736 138.962 194.72C138.988 194.71 139.003 194.699 139.003 194.699L140.066 193.929C140.076 193.918 140.118 193.908 140.191 193.908C140.258 193.908 140.305 193.918 140.337 193.929C140.363 193.944 140.378 194.001 140.378 194.095V195.095C140.404 195.054 140.441 195.012 140.482 194.97C140.758 194.626 141.05 194.356 141.357 194.158C141.659 193.965 142.008 193.866 142.399 193.866C142.524 193.866 142.592 193.882 142.607 193.908C142.675 194.09 142.732 194.262 142.774 194.429L142.941 195.116C142.951 195.158 142.925 195.199 142.857 195.241C142.784 195.283 142.732 195.304 142.691 195.304C142.649 195.293 142.607 195.251 142.566 195.179L142.503 195.074C142.295 194.882 142.05 194.804 141.774 194.845C141.493 194.887 141.232 194.991 140.982 195.158C140.732 195.324 140.545 195.501 140.42 195.679C140.42 195.694 140.409 195.715 140.399 195.741C140.383 195.757 140.378 195.772 140.378 195.783V198.47C140.378 198.486 140.378 198.527 140.378 198.595C140.378 198.652 140.378 198.694 140.378 198.72C140.404 198.97 140.488 199.126 140.628 199.179C140.764 199.236 140.837 199.283 140.837 199.324C140.837 199.439 140.816 199.491 140.774 199.491H139.024C138.982 199.491 138.962 199.46 138.962 199.387C138.962 199.319 138.972 199.277 139.003 199.262C139.029 199.236 139.066 199.215 139.107 199.199C139.159 199.173 139.201 199.147 139.232 199.116C139.284 199.064 139.326 199.001 139.357 198.929C139.399 198.845 139.42 198.757 139.42 198.658C139.42 198.548 139.42 198.486 139.42 198.47V195.366C139.42 195.241 139.383 195.152 139.316 195.095C139.258 195.043 139.196 195.012 139.128 195.012C139.055 195.012 139.008 195.001 138.982 194.97C138.941 194.944 138.92 194.918 138.92 194.887Z" fill="black"/>
<path d="M144.069 199.491C144.012 199.491 143.986 199.46 143.986 199.387C143.986 199.319 143.996 199.277 144.027 199.262C144.069 199.236 144.111 199.215 144.152 199.199C144.205 199.173 144.246 199.147 144.277 199.116C144.402 199.007 144.455 198.876 144.444 198.72C144.444 198.569 144.444 198.486 144.444 198.47V195.366C144.444 195.241 144.408 195.152 144.34 195.095C144.283 195.043 144.22 195.012 144.152 195.012C144.08 195.012 144.033 195.007 144.007 194.991C143.991 194.965 143.975 194.944 143.965 194.929C143.965 194.918 143.965 194.902 143.965 194.887C143.965 194.876 143.965 194.861 143.965 194.845C143.965 194.819 143.965 194.798 143.965 194.783C143.965 194.772 143.965 194.762 143.965 194.762C143.975 194.751 143.991 194.736 144.007 194.72C144.017 194.71 144.033 194.699 144.048 194.699L145.09 193.929C145.1 193.918 145.142 193.908 145.215 193.908C145.283 193.908 145.33 193.918 145.361 193.929C145.402 193.944 145.423 194.001 145.423 194.095V194.512L145.715 194.345L145.902 194.262C146.444 193.986 146.949 193.845 147.423 193.845C147.892 193.845 148.361 194.012 148.819 194.345C149.027 194.501 149.194 194.689 149.319 194.908C149.455 195.132 149.527 195.356 149.527 195.574V198.72C149.527 198.804 149.548 198.897 149.59 198.991C149.632 199.09 149.699 199.158 149.798 199.199C149.908 199.241 149.965 199.283 149.965 199.324C149.965 199.439 149.944 199.491 149.902 199.491H148.173C148.132 199.491 148.111 199.46 148.111 199.387C148.111 199.319 148.121 199.277 148.152 199.262C148.194 199.236 148.236 199.215 148.277 199.199C148.33 199.173 148.371 199.147 148.402 199.116C148.429 199.09 148.455 199.054 148.486 199.012C148.512 198.97 148.527 198.929 148.527 198.887C148.538 198.835 148.548 198.793 148.548 198.762C148.548 198.736 148.548 198.689 148.548 198.616C148.548 198.533 148.548 198.486 148.548 198.47V195.72C148.548 195.501 148.47 195.298 148.319 195.116C148.012 194.783 147.59 194.616 147.048 194.616C146.507 194.616 145.965 194.757 145.423 195.033V198.72C145.423 198.804 145.444 198.897 145.486 198.991C145.527 199.09 145.6 199.158 145.715 199.199C145.824 199.241 145.882 199.283 145.882 199.324C145.882 199.439 145.85 199.491 145.798 199.491H144.069Z" fill="black"/>
<path d="M159.598 198.824C160.473 198.824 161.254 198.632 161.952 198.241C162.661 197.84 163.234 197.298 163.682 196.616C163.734 196.533 163.77 196.512 163.786 196.554C163.812 196.585 163.848 196.626 163.89 196.679L164.077 196.929C164.129 197.027 164.15 197.09 164.14 197.116C163.9 197.59 163.504 198.054 162.952 198.512C161.937 199.376 160.817 199.804 159.598 199.804C158.874 199.804 158.202 199.663 157.577 199.387C156.963 199.111 156.442 198.741 156.015 198.283C155.598 197.824 155.265 197.283 155.015 196.658C154.775 196.033 154.661 195.397 154.661 194.741C154.661 194.074 154.786 193.439 155.036 192.824C155.296 192.215 155.65 191.689 156.098 191.241C156.541 190.798 157.062 190.444 157.661 190.179C158.27 189.918 158.89 189.783 159.515 189.783C160.249 189.783 160.984 189.923 161.723 190.199L161.994 190.304C162.036 190.319 162.088 190.304 162.161 190.262C162.228 190.22 162.296 190.199 162.369 190.199C162.452 190.199 162.515 190.236 162.557 190.304C162.583 190.319 162.588 190.361 162.577 190.429C162.577 190.543 162.624 190.798 162.723 191.199L162.869 191.845C162.911 192.012 162.932 192.126 162.932 192.179C162.932 192.194 162.879 192.231 162.786 192.283C162.687 192.324 162.624 192.335 162.598 192.304C162.275 191.751 161.874 191.366 161.39 191.158C160.9 190.939 160.291 190.824 159.557 190.824C158.817 190.824 158.15 190.991 157.557 191.324C156.973 191.658 156.52 192.126 156.202 192.72C155.879 193.304 155.723 193.97 155.723 194.72C155.723 195.21 155.833 195.699 156.057 196.199C156.291 196.699 156.583 197.147 156.932 197.533C157.291 197.908 157.708 198.22 158.182 198.47C158.65 198.71 159.124 198.824 159.598 198.824Z" fill="black"/>
<path d="M165.489 190.866L165.509 190.762C165.509 190.751 165.515 190.736 165.53 190.72C165.556 190.71 165.572 190.699 165.572 190.699L166.634 189.908C166.645 189.897 166.666 189.887 166.697 189.887C166.864 189.887 166.947 189.949 166.947 190.074V198.47C166.947 198.501 166.947 198.543 166.947 198.595C166.947 198.652 166.947 198.694 166.947 198.72C166.957 198.97 167.035 199.126 167.176 199.179C167.327 199.236 167.405 199.283 167.405 199.324C167.405 199.439 167.374 199.491 167.322 199.491H165.593C165.551 199.491 165.53 199.46 165.53 199.387C165.53 199.319 165.541 199.277 165.572 199.262C165.598 199.236 165.634 199.215 165.676 199.199C165.728 199.173 165.77 199.147 165.801 199.116C165.843 199.09 165.869 199.064 165.884 199.033C165.91 198.991 165.931 198.96 165.947 198.929C165.957 198.902 165.968 198.866 165.968 198.824C165.978 198.772 165.989 198.736 165.989 198.72V191.345C165.989 191.22 165.952 191.132 165.884 191.074C165.827 191.022 165.765 190.991 165.697 190.991C165.624 190.991 165.577 190.981 165.551 190.949C165.509 190.939 165.489 190.908 165.489 190.866Z" fill="black"/>
<path d="M170.366 194.824C170.116 194.981 169.928 195.189 169.803 195.449C169.688 195.715 169.636 196.048 169.636 196.449C169.636 196.84 169.746 197.236 169.97 197.637C170.188 198.043 170.491 198.361 170.866 198.595C171.251 198.819 171.636 198.929 172.011 198.929C172.397 198.929 172.709 198.845 172.949 198.679C173.199 198.501 173.386 198.277 173.511 198.012C173.636 197.736 173.699 197.429 173.699 197.095C173.699 196.402 173.475 195.814 173.032 195.324C172.6 194.824 172.011 194.574 171.261 194.574C170.928 194.574 170.626 194.658 170.366 194.824ZM169.657 198.783C169.392 198.533 169.178 198.236 169.011 197.887C168.855 197.527 168.782 197.111 168.782 196.637C168.782 196.152 168.907 195.689 169.157 195.241C169.407 194.783 169.761 194.429 170.22 194.179C170.678 193.918 171.157 193.783 171.657 193.783C172.558 193.783 173.272 194.069 173.803 194.637C174.345 195.21 174.616 195.902 174.616 196.72C174.626 197.527 174.35 198.21 173.782 198.762C173.209 199.319 172.496 199.595 171.636 199.595C171.261 199.595 170.897 199.522 170.553 199.387C170.22 199.236 169.918 199.033 169.657 198.783Z" fill="black"/>
<path d="M176.624 192.866C176.635 192.783 176.707 192.741 176.832 192.741C176.968 192.741 177.041 192.783 177.041 192.866V193.908H178.082C178.275 193.908 178.374 193.939 178.374 193.991V194.491C178.374 194.548 178.275 194.574 178.082 194.574H177.041V198.22C177.041 198.679 177.176 198.939 177.457 198.991C177.666 199.033 177.879 198.96 178.103 198.762C178.187 198.679 178.239 198.658 178.27 198.699C178.312 198.741 178.338 198.777 178.353 198.804C178.379 198.819 178.395 198.84 178.395 198.866C178.395 198.897 178.395 198.908 178.395 198.908C178.395 198.939 178.374 198.97 178.332 199.012L178.207 199.116C177.791 199.481 177.385 199.637 176.999 199.595C176.624 199.564 176.358 199.345 176.207 198.929C176.124 198.71 176.082 198.429 176.082 198.095V194.574H175.812C175.603 194.574 175.499 194.548 175.499 194.491V193.991C175.499 193.939 175.582 193.908 175.749 193.908C176.041 193.908 176.249 193.814 176.374 193.616C176.499 193.408 176.582 193.158 176.624 192.866Z" fill="black"/>
<path d="M179.429 190.866L179.45 190.762C179.45 190.751 179.471 190.731 179.513 190.699L180.575 189.908C180.586 189.897 180.627 189.887 180.7 189.887C180.768 189.887 180.815 189.902 180.846 189.929C180.872 189.944 180.888 189.991 180.888 190.074V194.512C181.013 194.444 181.106 194.387 181.179 194.345L181.367 194.262C181.919 193.986 182.429 193.845 182.888 193.845C183.356 193.845 183.825 194.012 184.284 194.345C184.492 194.501 184.659 194.689 184.784 194.908C184.919 195.132 184.992 195.356 184.992 195.574V198.47C184.992 198.486 184.992 198.527 184.992 198.595C184.992 198.652 184.992 198.694 184.992 198.72C185.018 198.97 185.101 199.126 185.242 199.179C185.377 199.236 185.45 199.283 185.45 199.324C185.45 199.439 185.419 199.491 185.367 199.491H183.638C183.596 199.491 183.575 199.46 183.575 199.387C183.575 199.319 183.586 199.277 183.617 199.262C183.643 199.236 183.685 199.215 183.742 199.199C183.794 199.173 183.836 199.147 183.867 199.116C183.893 199.09 183.919 199.054 183.95 199.012C183.976 198.97 183.992 198.929 183.992 198.887C184.002 198.835 184.013 198.793 184.013 198.762C184.013 198.736 184.013 198.689 184.013 198.616C184.013 198.533 184.013 198.486 184.013 198.47V195.72C184.013 195.486 183.935 195.283 183.784 195.116C183.476 194.783 183.054 194.616 182.513 194.616C181.971 194.616 181.429 194.757 180.888 195.033V198.47C180.888 198.486 180.888 198.527 180.888 198.595C180.888 198.652 180.888 198.694 180.888 198.72C180.914 198.97 180.997 199.126 181.138 199.179C181.273 199.236 181.346 199.283 181.346 199.324C181.346 199.439 181.315 199.491 181.263 199.491H179.534C179.492 199.491 179.471 199.46 179.471 199.387C179.471 199.319 179.481 199.277 179.513 199.262C179.539 199.236 179.575 199.215 179.617 199.199C179.669 199.173 179.711 199.147 179.742 199.116C179.867 199.007 179.929 198.876 179.929 198.72C179.929 198.569 179.929 198.486 179.929 198.47V191.345C179.929 191.22 179.893 191.132 179.825 191.074C179.768 191.022 179.705 190.991 179.638 190.991C179.565 190.991 179.518 190.981 179.492 190.949C179.45 190.939 179.429 190.908 179.429 190.866Z" fill="black"/>
<path d="M188.28 190.991V191.47C188.28 191.501 188.264 191.527 188.238 191.554C188.223 191.569 188.139 191.606 187.988 191.658C187.848 191.715 187.744 191.762 187.676 191.804C187.603 191.835 187.54 191.856 187.488 191.866C187.447 191.882 187.415 191.882 187.405 191.866C187.389 191.856 187.384 191.777 187.384 191.637V191.074C187.384 191.074 187.384 191.064 187.384 191.033C187.384 191.007 187.384 190.991 187.384 190.991C187.384 190.981 187.384 190.965 187.384 190.949C187.384 190.939 187.389 190.923 187.405 190.908C187.431 190.897 187.514 190.861 187.655 190.804C187.806 190.751 187.915 190.699 187.988 190.658C188.139 190.59 188.223 190.564 188.238 190.574C188.264 190.59 188.28 190.731 188.28 190.991ZM186.947 199.491C186.889 199.491 186.863 199.46 186.863 199.387C186.863 199.319 186.874 199.277 186.905 199.262C186.947 199.236 186.988 199.215 187.03 199.199C187.223 199.116 187.322 198.929 187.322 198.637V195.366C187.322 195.241 187.285 195.152 187.217 195.095C187.16 195.043 187.098 195.012 187.03 195.012C186.957 195.012 186.91 195.007 186.884 194.991C186.853 194.965 186.842 194.923 186.842 194.866C186.842 194.798 186.842 194.762 186.842 194.762C186.853 194.751 186.869 194.736 186.884 194.72C186.895 194.71 186.91 194.699 186.926 194.699L187.967 193.929C187.994 193.902 188.014 193.897 188.03 193.908C188.056 193.923 188.103 193.944 188.176 193.97C188.259 193.986 188.301 194.027 188.301 194.095V198.658C188.301 198.939 188.395 199.116 188.592 199.199C188.702 199.241 188.759 199.283 188.759 199.324C188.759 199.439 188.728 199.491 188.676 199.491H186.947Z" fill="black"/>
<path d="M190.314 199.491C190.257 199.491 190.231 199.46 190.231 199.387C190.231 199.319 190.241 199.277 190.272 199.262C190.314 199.236 190.356 199.215 190.397 199.199C190.449 199.173 190.491 199.147 190.522 199.116C190.647 199.007 190.699 198.876 190.689 198.72C190.689 198.569 190.689 198.486 190.689 198.47V195.366C190.689 195.241 190.652 195.152 190.585 195.095C190.527 195.043 190.465 195.012 190.397 195.012C190.324 195.012 190.277 195.007 190.251 194.991C190.236 194.965 190.22 194.944 190.21 194.929C190.21 194.918 190.21 194.902 190.21 194.887C190.21 194.876 190.21 194.861 190.21 194.845C190.21 194.819 190.21 194.798 190.21 194.783C190.21 194.772 190.21 194.762 190.21 194.762C190.22 194.751 190.236 194.736 190.251 194.72C190.262 194.71 190.277 194.699 190.293 194.699L191.335 193.929C191.345 193.918 191.387 193.908 191.46 193.908C191.527 193.908 191.574 193.918 191.606 193.929C191.647 193.944 191.668 194.001 191.668 194.095V194.512L191.96 194.345L192.147 194.262C192.689 193.986 193.194 193.845 193.668 193.845C194.137 193.845 194.606 194.012 195.064 194.345C195.272 194.501 195.439 194.689 195.564 194.908C195.699 195.132 195.772 195.356 195.772 195.574V198.72C195.772 198.804 195.793 198.897 195.835 198.991C195.876 199.09 195.944 199.158 196.043 199.199C196.152 199.241 196.21 199.283 196.21 199.324C196.21 199.439 196.189 199.491 196.147 199.491H194.418C194.376 199.491 194.356 199.46 194.356 199.387C194.356 199.319 194.366 199.277 194.397 199.262C194.439 199.236 194.481 199.215 194.522 199.199C194.574 199.173 194.616 199.147 194.647 199.116C194.673 199.09 194.699 199.054 194.731 199.012C194.757 198.97 194.772 198.929 194.772 198.887C194.783 198.835 194.793 198.793 194.793 198.762C194.793 198.736 194.793 198.689 194.793 198.616C194.793 198.533 194.793 198.486 194.793 198.47V195.72C194.793 195.501 194.715 195.298 194.564 195.116C194.257 194.783 193.835 194.616 193.293 194.616C192.751 194.616 192.21 194.757 191.668 195.033V198.72C191.668 198.804 191.689 198.897 191.731 198.991C191.772 199.09 191.845 199.158 191.96 199.199C192.069 199.241 192.126 199.283 192.126 199.324C192.126 199.439 192.095 199.491 192.043 199.491H190.314Z" fill="black"/>
<path d="M198.717 197.929C198.592 197.97 198.613 198.054 198.78 198.179C198.957 198.293 199.228 198.387 199.592 198.47C199.967 198.554 200.28 198.616 200.53 198.658C200.79 198.699 201.061 198.762 201.342 198.845C201.634 198.929 201.874 199.027 202.072 199.137C202.28 199.236 202.452 199.376 202.592 199.554C202.728 199.746 202.801 199.97 202.801 200.22C202.801 200.47 202.738 200.699 202.613 200.908C202.238 201.574 201.332 201.908 199.905 201.908C199.249 201.908 198.66 201.746 198.134 201.429C197.618 201.121 197.306 200.684 197.197 200.116V200.033C197.197 200.001 197.197 199.981 197.197 199.97L198.197 199.095C198.238 199.095 198.28 199.126 198.322 199.179C198.374 199.236 198.405 199.277 198.405 199.304C198.405 199.335 198.368 199.382 198.301 199.449C198.243 199.501 198.217 199.668 198.217 199.949C198.217 200.241 198.332 200.496 198.572 200.72C198.806 200.955 199.082 201.116 199.405 201.199C200.098 201.309 200.697 201.272 201.197 201.095C201.363 201.022 201.499 200.918 201.613 200.783C201.723 200.642 201.78 200.496 201.78 200.345C201.78 200.189 201.702 200.064 201.551 199.97C201.327 199.845 200.785 199.684 199.926 199.491C199.061 199.283 198.426 199.09 198.009 198.908C197.91 198.866 197.863 198.84 197.863 198.824C197.863 198.798 197.915 198.673 198.03 198.449C198.155 198.231 198.29 198.007 198.447 197.783C198.181 197.59 197.967 197.345 197.801 197.054C197.634 196.751 197.551 196.429 197.551 196.095C197.551 195.429 197.759 194.897 198.176 194.491C198.592 194.074 199.103 193.866 199.717 193.866C200.327 193.866 200.832 194.064 201.238 194.449L201.259 194.429C201.41 194.111 201.488 193.944 201.488 193.929C201.499 193.918 201.514 193.908 201.53 193.908H202.509C202.535 193.908 202.561 193.939 202.592 193.991C202.618 194.048 202.624 194.085 202.613 194.095C202.514 194.137 202.405 194.189 202.28 194.241C202.014 194.356 201.79 194.59 201.613 194.949C201.79 195.283 201.884 195.637 201.884 196.012C201.884 196.626 201.676 197.137 201.259 197.554C200.842 197.97 200.306 198.179 199.655 198.179C199.332 198.179 199.019 198.095 198.717 197.929ZM199.384 194.574C198.634 194.574 198.259 194.986 198.259 195.804C198.259 196.277 198.436 196.679 198.801 197.012C199.16 197.335 199.551 197.491 199.967 197.491C200.394 197.491 200.697 197.402 200.863 197.22C201.04 197.027 201.134 196.71 201.134 196.262C201.134 195.819 200.967 195.429 200.634 195.095C200.301 194.751 199.884 194.574 199.384 194.574Z" fill="black"/>
<path d="M208.775 199.429C208.66 199.402 208.535 199.366 208.4 199.324C208.259 199.272 208.17 199.241 208.129 199.241H208.045C207.905 199.241 207.801 199.319 207.733 199.47C207.733 199.486 207.733 199.491 207.733 199.491H207.545C207.53 199.491 207.514 199.486 207.504 199.47L207.004 197.741C206.988 197.658 207.051 197.616 207.191 197.616C207.243 197.616 207.28 197.632 207.295 197.658C207.306 197.673 207.321 197.689 207.337 197.699C207.347 197.699 207.368 197.72 207.4 197.762C207.91 198.402 208.66 198.72 209.65 198.72C210.176 198.72 210.613 198.585 210.962 198.304C211.306 198.027 211.483 197.626 211.483 197.095C211.483 196.736 211.42 196.465 211.295 196.283C211.181 196.106 211.092 195.97 211.025 195.887C210.868 195.694 210.493 195.429 209.9 195.095C209.301 194.762 208.821 194.465 208.462 194.199C207.53 193.522 207.066 192.824 207.066 192.116C207.066 191.397 207.285 190.84 207.733 190.449C208.176 190.064 208.764 189.866 209.504 189.866C209.92 189.866 210.358 189.981 210.816 190.199C211.035 190.314 211.196 190.387 211.295 190.429C211.389 190.46 211.462 190.439 211.504 190.366C211.545 190.283 211.571 190.241 211.587 190.241C211.754 190.215 211.837 190.241 211.837 190.324L212.025 192.199C212.025 192.231 211.931 192.241 211.754 192.241C211.722 192.241 211.696 192.21 211.67 192.137C211.556 191.751 211.28 191.423 210.837 191.158C210.389 190.897 209.946 190.762 209.504 190.762C208.545 190.762 208.066 191.152 208.066 191.929C208.066 192.501 208.577 193.064 209.608 193.616L210.733 194.22C211.41 194.595 211.884 195.007 212.15 195.449C212.426 195.882 212.566 196.345 212.566 196.845V196.908C212.467 197.59 212.358 198.048 212.233 198.283C211.993 198.689 211.67 199.007 211.254 199.241C210.837 199.481 210.363 199.595 209.837 199.595C209.545 199.595 209.301 199.564 209.108 199.512L208.775 199.429Z" fill="black"/>
<path d="M214.492 192.866C214.503 192.783 214.576 192.741 214.701 192.741C214.836 192.741 214.909 192.783 214.909 192.866V193.908H215.951C216.143 193.908 216.242 193.939 216.242 193.991V194.491C216.242 194.548 216.143 194.574 215.951 194.574H214.909V198.22C214.909 198.679 215.044 198.939 215.326 198.991C215.534 199.033 215.748 198.96 215.972 198.762C216.055 198.679 216.107 198.658 216.138 198.699C216.18 198.741 216.206 198.777 216.222 198.804C216.248 198.819 216.263 198.84 216.263 198.866C216.263 198.897 216.263 198.908 216.263 198.908C216.263 198.939 216.242 198.97 216.201 199.012L216.076 199.116C215.659 199.481 215.253 199.637 214.867 199.595C214.492 199.564 214.227 199.345 214.076 198.929C213.992 198.71 213.951 198.429 213.951 198.095V194.574H213.68C213.472 194.574 213.367 194.548 213.367 194.491V193.991C213.367 193.939 213.451 193.908 213.617 193.908C213.909 193.908 214.117 193.814 214.242 193.616C214.367 193.408 214.451 193.158 214.492 192.866Z" fill="black"/>
<path d="M218.652 194.824C218.402 194.981 218.214 195.189 218.089 195.449C217.975 195.715 217.923 196.048 217.923 196.449C217.923 196.84 218.032 197.236 218.256 197.637C218.475 198.043 218.777 198.361 219.152 198.595C219.537 198.819 219.923 198.929 220.298 198.929C220.683 198.929 220.996 198.845 221.235 198.679C221.485 198.501 221.673 198.277 221.798 198.012C221.923 197.736 221.985 197.429 221.985 197.095C221.985 196.402 221.761 195.814 221.319 195.324C220.886 194.824 220.298 194.574 219.548 194.574C219.214 194.574 218.912 194.658 218.652 194.824ZM217.944 198.783C217.678 198.533 217.464 198.236 217.298 197.887C217.141 197.527 217.069 197.111 217.069 196.637C217.069 196.152 217.194 195.689 217.444 195.241C217.694 194.783 218.048 194.429 218.506 194.179C218.964 193.918 219.444 193.783 219.944 193.783C220.845 193.783 221.558 194.069 222.089 194.637C222.631 195.21 222.902 195.902 222.902 196.72C222.912 197.527 222.636 198.21 222.069 198.762C221.496 199.319 220.782 199.595 219.923 199.595C219.548 199.595 219.183 199.522 218.839 199.387C218.506 199.236 218.204 199.033 217.944 198.783Z" fill="black"/>
<path d="M224.14 194.887L224.16 194.783C224.16 194.757 224.166 194.736 224.181 194.72C224.207 194.71 224.223 194.699 224.223 194.699L225.285 193.929C225.296 193.918 225.338 193.908 225.41 193.908C225.478 193.908 225.525 193.918 225.556 193.929C225.582 193.944 225.598 194.001 225.598 194.095V195.095C225.624 195.054 225.66 195.012 225.702 194.97C225.978 194.626 226.27 194.356 226.577 194.158C226.879 193.965 227.228 193.866 227.619 193.866C227.744 193.866 227.811 193.882 227.827 193.908C227.895 194.09 227.952 194.262 227.994 194.429L228.16 195.116C228.171 195.158 228.145 195.199 228.077 195.241C228.004 195.283 227.952 195.304 227.91 195.304C227.869 195.293 227.827 195.251 227.785 195.179L227.723 195.074C227.515 194.882 227.27 194.804 226.994 194.845C226.713 194.887 226.452 194.991 226.202 195.158C225.952 195.324 225.765 195.501 225.64 195.679C225.64 195.694 225.629 195.715 225.619 195.741C225.603 195.757 225.598 195.772 225.598 195.783V198.47C225.598 198.486 225.598 198.527 225.598 198.595C225.598 198.652 225.598 198.694 225.598 198.72C225.624 198.97 225.707 199.126 225.848 199.179C225.983 199.236 226.056 199.283 226.056 199.324C226.056 199.439 226.035 199.491 225.994 199.491H224.244C224.202 199.491 224.181 199.46 224.181 199.387C224.181 199.319 224.192 199.277 224.223 199.262C224.249 199.236 224.285 199.215 224.327 199.199C224.379 199.173 224.421 199.147 224.452 199.116C224.504 199.064 224.546 199.001 224.577 198.929C224.619 198.845 224.64 198.757 224.64 198.658C224.64 198.548 224.64 198.486 224.64 198.47V195.366C224.64 195.241 224.603 195.152 224.535 195.095C224.478 195.043 224.416 195.012 224.348 195.012C224.275 195.012 224.228 195.001 224.202 194.97C224.16 194.944 224.14 194.918 224.14 194.887Z" fill="black"/>
<path d="M233.205 195.429C232.966 194.762 232.466 194.429 231.705 194.429C231.357 194.429 231.039 194.527 230.747 194.72C230.455 194.902 230.232 195.137 230.08 195.429C229.924 195.71 229.851 195.981 229.851 196.241C229.851 196.491 229.857 196.611 229.872 196.595L233.185 195.449V195.408L233.205 195.429ZM229.997 197.22C230.164 197.679 230.445 198.043 230.851 198.304C231.252 198.569 231.705 198.699 232.205 198.699C232.857 198.699 233.445 198.397 233.976 197.783C234.06 197.715 234.174 197.757 234.33 197.908C234.341 197.923 234.341 197.944 234.33 197.97C233.883 198.585 233.539 198.981 233.289 199.158C232.872 199.449 232.393 199.595 231.851 199.595C231.476 199.595 231.112 199.517 230.768 199.366C230.06 199.064 229.549 198.564 229.247 197.866C229.08 197.522 228.997 197.111 228.997 196.637C228.997 196.152 229.122 195.689 229.372 195.241C229.622 194.783 229.976 194.429 230.435 194.179C230.893 193.918 231.424 193.783 232.039 193.783C232.758 193.783 233.414 194.126 233.997 194.804C234.273 195.152 234.414 195.423 234.414 195.616L229.997 197.22Z" fill="black"/>
</svg>
